<svg xmlns="http://www.w3.org/2000/svg" viewBox="0 0 547 547.78"><defs><style>.cls-1{fill:#ffdc73;}</style></defs><title>Logo</title><g id="Layer_2" data-name="Layer 2"><g id="Layer_2-2" data-name="Layer 2"><path class="cls-1" d="M271.73,76C162.67,76,74,164.71,74,273.77s88.72,197.78,197.78,197.78,197.78-88.73,197.78-197.78S380.79,76,271.73,76ZM155.05,224.13c.57,0,1.15,0,1.72,0a61.92,61.92,0,0,1-6.62,17.76c-.59.08-1.17.15-1.75.24a109.87,109.87,0,0,0-29,8,61.79,61.79,0,0,0-14,8.51A44.5,44.5,0,0,0,95,271a175.68,175.68,0,0,1,21.76-82.18l3.21,6.29C129.45,213.74,141.26,223.51,155.05,224.13Zm-13.58-23.3c5.65,1.41,10.68,3.93,13.42,8.25C149.77,208.54,145.26,205.2,141.47,200.83ZM304.05,339.51a211.42,211.42,0,0,1-8.28-24.5A105.15,105.15,0,0,1,293.23,303a41.49,41.49,0,0,1-.43-5.36c0-.37,0-.73,0-1.05h0c1.59-.7,3.47-1.39,5.4-2,3.88-1.28,8-2.39,12.22-3.38A238.37,238.37,0,0,1,336,286.59c4.29-.52,8.56-.89,12.75-1.09,2.09-.08,4.16-.12,6.18-.1s4,.13,6,.31a97.14,97.14,0,0,1,23.85,4.93,38,38,0,0,1,5.13,2.23,27.3,27.3,0,0,1,4.19,2.71,26.43,26.43,0,0,1,2.94,2.6,9.38,9.38,0,0,1,1.67,2.15,5.78,5.78,0,0,1,.46,1.19,7.13,7.13,0,0,1,.13.72c0,.12,0,.26,0,.39a2.7,2.7,0,0,1,0,.56,25.8,25.8,0,0,1-.55,4.85,12.1,12.1,0,0,1-4.13,7c-1.27,1.17-3,2.44-4.92,3.93a48.15,48.15,0,0,0-6.11,5.41,30.41,30.41,0,0,0-5,7.28l-.47,1-.4.88c-.26.59-.52,1.18-.75,1.77-.49,1.18-.93,2.37-1.33,3.57a84.71,84.71,0,0,0-3.34,14.25c-.73,4.62-1.2,9.13-2.08,13a21,21,0,0,1-1.75,5.13,8.29,8.29,0,0,1-2.93,3.29,12.79,12.79,0,0,1-4.86,1.71l-.7.1a2.94,2.94,0,0,1-.44,0,5.8,5.8,0,0,1-1.05-.09,12.42,12.42,0,0,1-2.5-.74,42.58,42.58,0,0,1-10.41-6.81,110.69,110.69,0,0,1-9.49-9.17,146.11,146.11,0,0,1-16.23-21.23,100.12,100.12,0,0,1-6.37-11.74,44.32,44.32,0,0,1-3.89-12.6,13.92,13.92,0,0,1,.54-6.31,7.36,7.36,0,0,1,4.28-4.34,16,16,0,0,1,6.52-.93,39.21,39.21,0,0,1,6.71.91,38.79,38.79,0,0,0-6.67-1.41,16.67,16.67,0,0,0-6.9.49,8.92,8.92,0,0,0-3.15,1.75,8.75,8.75,0,0,0-2.18,2.94,15.37,15.37,0,0,0-1.12,7.05,46.42,46.42,0,0,0,3.16,13.55,104,104,0,0,0,5.74,12.57,151,151,0,0,0,15.23,23,106.44,106.44,0,0,0,9.41,10.34,66.42,66.42,0,0,0,5.41,4.69,36.51,36.51,0,0,0,6.37,4,20.66,20.66,0,0,0,3.93,1.44,14.7,14.7,0,0,0,2.31.36c.4,0,.83,0,1.26,0l1,0a21.3,21.3,0,0,0,8.16-1.88,17.51,17.51,0,0,0,6.89-5.88,30,30,0,0,0,3.61-7.31c1.67-4.79,2.64-9.25,3.84-13.48a78.74,78.74,0,0,1,4.21-11.83c.43-.92.87-1.81,1.35-2.68.23-.44.48-.86.73-1.29l.37-.64c.13-.21.24-.34.36-.52a16,16,0,0,1,3.21-3.45,34.21,34.21,0,0,1,4.55-3c1.8-1.05,3.94-2.2,6.25-3.8a29.83,29.83,0,0,0,11.48-14.66,43.68,43.68,0,0,0,2.18-8.43c.12-.61.24-1.6.31-2.44s.1-1.78.09-2.68a25.74,25.74,0,0,0-.71-5.49,26.82,26.82,0,0,0-4.6-9.81,30.5,30.5,0,0,0-6.94-6.68,51,51,0,0,0-7.44-4.28c-2.48-1.16-4.93-2.19-7.38-3.07a101.19,101.19,0,0,0-14.6-4,131.43,131.43,0,0,0-14.63-2.09q-3.69-.32-7.52-.39c-2.52,0-5,0-7.42.12-4.86.23-9.62.65-14.33,1.23a256.77,256.77,0,0,0-27.91,4.95c-4.63,1.1-9.24,2.32-14,3.88-2.37.78-4.76,1.63-7.32,2.76-.65.3-1.27.57-2,.93l-1,.52-1.11.63-.28.16-.41.25a12.83,12.83,0,0,0-1.25.9,15.25,15.25,0,0,0-2.07,2,16.85,16.85,0,0,0-2.45,3.95l-.06.15c.07-2.12.06-4.25.08-6.36,0-.34,0-.67,0-1,.21,0,.42,0,.64,0a5.64,5.64,0,0,0,5.15-7.89A271.83,271.83,0,0,1,324,261.72a225.28,225.28,0,0,1,26.18-1.88h6.48c2.14-.05,4.27-.23,6.41-.46a101.54,101.54,0,0,1,12.81-.4,155.74,155.74,0,0,1,25.32,2.52c2.07.38,4.12.82,6.15,1.29.55.12.95.23,1.38.34s.86.24,1.29.37c.86.26,1.73.54,2.59.87a47.86,47.86,0,0,1,9.87,5.05c6.1,4.1,10.76,9.49,13,15.57a28.16,28.16,0,0,1,1.64,9.7,39.73,39.73,0,0,1-1.59,10.56,29.86,29.86,0,0,1-4.21,9.24,64.23,64.23,0,0,1-7.68,8.77c-3.13,3.14-6.61,6.62-9.86,10.41-1.62,1.9-3.2,3.86-4.7,5.88-.76,1-1.48,2-2.2,3.07s-1.55,2.34-2.24,3.54a71.36,71.36,0,0,0-6.26,14.58c-1.49,4.72-2.61,9.14-3.85,13.1-2.42,8-5.58,14.21-10.64,19.67a51.7,51.7,0,0,1-4,3.94l-1.11.92c-.37.32-.74.64-1.05.87a23.06,23.06,0,0,1-2,1.4,20,20,0,0,1-8.3,3.11,22.27,22.27,0,0,1-9.17-.88,40.37,40.37,0,0,1-9.74-4.5,88.34,88.34,0,0,1-18.2-15.87c-2.82-3.12-5.52-6.4-8.13-9.81q-1.95-2.55-3.83-5.18c-1.13-1.57-2.17-3.2-3.22-5A176.27,176.27,0,0,1,304.05,339.51ZM362,238a53.47,53.47,0,0,0-7.15.5c-2.37.34-4.7.89-7,1.39-4.66,1-9.26,2.28-13.81,3.61s-9,2.9-13.42,4.53-8.74,3.43-13,5.39c-.93.41-1.86.85-2.78,1.28,2-1.67,3.84-3.37,5.67-5.1,3.44-3.27,6.68-6.63,9.8-10.07A251.18,251.18,0,0,0,337.76,218c2.72-3.77,5.35-7.64,7.84-11.72,1-1.67,2-3.4,3-5.18,5.92,6.45,12.08,11.24,18.29,14.2.49,7,2.72,14.71,6.61,22.66C369.65,237.94,365.82,238,362,238ZM305.79,116.72a44.8,44.8,0,0,1,10.81-.33,46.09,46.09,0,0,1,10.58,2.29c.89.29,1.77.65,2.65,1s1.5.62,2.2,1a22.06,22.06,0,0,1,3.82,2.39,18.92,18.92,0,0,1,5.38,6.63,27.84,27.84,0,0,1,2.56,9.24c.78,6.92-.26,14.79-2.23,22.56a146.38,146.38,0,0,1-8.35,23.32l-1.29,2.85c-.39.83-.81,1.67-1.26,2.53-.91,1.71-1.91,3.46-3,5.19-2.13,3.49-4.48,7-6.94,10.38a232.65,232.65,0,0,1-16,19.71c-2.84,3.13-5.75,6.15-8.73,9a89.87,89.87,0,0,1-9,7.64,30.53,30.53,0,0,1-3.84,2.39l-1.2-.91c-1.43-1.13-2.91-2.43-4.37-3.79A153.38,153.38,0,0,1,261,221.26a118.53,118.53,0,0,1-12.95-20.56c-.41-.87-.8-1.74-1.15-2.59-.19-.43-.34-.86-.5-1.28s-.32-.81-.5-1.34c-.71-2-1.4-4-2-6a122.14,122.14,0,0,1-3.2-11.8,50.15,50.15,0,0,1-1.32-11.09,29.35,29.35,0,0,1,.52-4.69,33.06,33.06,0,0,1,.84-3.72,10.31,10.31,0,0,1,1.42-3.07,11.24,11.24,0,0,1,1.2-1.45c.26-.28.42-.41.59-.58s.33-.28.48-.39a4.79,4.79,0,0,1,2.4-.94,23,23,0,0,1,4.94.12c4.07.46,9.25,1.26,14.61,1,1.33-.06,2.71-.21,4-.39s2.36-.37,3.52-.59c2.32-.42,4.61-.91,6.85-1.44,4.48-1.05,8.81-2.25,13-3.36a72.4,72.4,0,0,1,12.05-2.36A18.32,18.32,0,0,1,311,145a9.1,9.1,0,0,1,4,2,9.2,9.2,0,0,1,1.62,1.82,12.57,12.57,0,0,1,1.18,2.28,20.3,20.3,0,0,1,1.24,5.45,41.73,41.73,0,0,1-.91,12.2A75.91,75.91,0,0,1,314.4,181a85.27,85.27,0,0,1-13,22.29,46.07,46.07,0,0,1-9.33,8.76,22.48,22.48,0,0,1-5.6,2.82,12.65,12.65,0,0,1-6.06.53,11.73,11.73,0,0,1-5.55-2.62,20.28,20.28,0,0,1-4.17-4.89,47.13,47.13,0,0,1-5.08-12.17,47.52,47.52,0,0,0,4.25,12.65,21.28,21.28,0,0,0,4,5.49,13.3,13.3,0,0,0,6.12,3.41,14.78,14.78,0,0,0,7.09-.14,24.89,24.89,0,0,0,6.44-2.7,48.94,48.94,0,0,0,10.61-8.68,89.7,89.7,0,0,0,15.25-22.54,78.29,78.29,0,0,0,4.88-12.92,48,48,0,0,0,1.9-14.14,27.63,27.63,0,0,0-1.26-7.55,19.82,19.82,0,0,0-1.63-3.74,21.77,21.77,0,0,0-2.36-3.48,17.72,17.72,0,0,0-7.11-5,26.43,26.43,0,0,0-7.94-1.67,79.19,79.19,0,0,0-14.33.69c-4.52.51-8.87,1.13-13.12,1.56-2.13.21-4.23.38-6.31.49-1,.05-2.06.09-3.09.1a25.51,25.51,0,0,1-2.62-.11c-3.52-.28-7.07-1.31-11.72-2.43a40.29,40.29,0,0,0-8.26-1.2A24,24,0,0,0,236,135.86c-.84.37-1.62.8-2.4,1.24s-1.51,1-2.11,1.37a31.41,31.41,0,0,0-3.74,3,30.53,30.53,0,0,0-6,7.86,28.85,28.85,0,0,0-3,9,44.08,44.08,0,0,0-.47,8.55,85.41,85.41,0,0,0,1.92,15.26,143.22,143.22,0,0,0,3.74,13.85c.71,2.23,1.47,4.43,2.25,6.62.18.52.43,1.17.66,1.77s.46,1.23.72,1.81c.49,1.2,1,2.36,1.54,3.49A138.28,138.28,0,0,0,244.34,234q4.28,5.59,9,10.85c3.13,3.51,6.39,6.92,9.95,10.23,1.78,1.66,3.63,3.29,5.67,4.91,1,.81,2.11,1.62,3.32,2.43.62.41,1.22.82,2,1.24l.53.31.31.17.68.35a14.2,14.2,0,0,0,2.75,1,15.73,15.73,0,0,0,4.78.44c.35,0,.68-.05,1-.09-.4.25-.8.47-1.19.72-1.67,1-3.29,2.08-4.92,3.14a5.61,5.61,0,0,0-8,.53,273.68,273.68,0,0,1-32-34.76c-2.63-3.44-5.17-6.91-7.55-10.48s-4.72-7.12-6.88-10.78-4.08-7.43-6.52-10.82c-1.22-1.71-2.42-3.43-3.57-5.18s-2.17-3.58-3.18-5.41a158.23,158.23,0,0,1-10.5-22.59c-.72-1.94-1.39-3.88-2-5.84-.32-1-.6-2-.9-2.93-.17-.53-.24-.87-.37-1.31s-.2-.85-.31-1.28a47,47,0,0,1-1.12-10.76c.07-7.25,1.87-14.18,5.44-19.47a25.63,25.63,0,0,1,6.62-6.84,32.88,32.88,0,0,1,9-4.56,50.16,50.16,0,0,1,5.17-1.42,30.56,30.56,0,0,1,4.93-.64,36.51,36.51,0,0,1,10.31,1.16c3.8.89,8.13,2.19,12.75,3.32a113.19,113.19,0,0,0,14.39,2.61c.61.08,1.22.13,1.84.19l.91.09,1,.06c1.37.11,2.73.13,4.09.14a64.22,64.22,0,0,0,7.94-.57,125.19,125.19,0,0,0,14.15-2.91A121.43,121.43,0,0,1,305.79,116.72ZM244.4,280ZM192,202.9l.09.17c1.13,2.05,2.34,4.05,3.51,6.08s2.31,4.07,3.55,6A68.28,68.28,0,0,0,208,226.09a201.47,201.47,0,0,0,20.22,19q5.55,4.55,11.34,8.67-2.93-1.14-5.85-2.14a230.55,230.55,0,0,0-27.57-7.35,200.41,200.41,0,0,0-28.5-3.93c-2.49-.12-5-.19-7.68-.11l-2.47.11A59.33,59.33,0,0,0,172.3,220C179.15,216.4,185.85,210.62,192,202.9ZM106.22,334.32c3.11,3.81,6.19,7.19,8.8,10.4a52.76,52.76,0,0,1,6.36,9.39l.57,1.18.52,1.19c.35.83.75,1.85,1.08,2.77.7,1.89,1.33,3.8,1.9,5.76,1.1,3.75,1.93,7.64,2.82,11.93a176.71,176.71,0,0,1-23.12-44C105.51,333.41,105.86,333.88,106.22,334.32Zm68,70.11c-6.29-1.52-12.05-5.54-16.92-11.26a29.49,29.49,0,0,1-5.31-8.64,66.67,66.67,0,0,1-3.07-11.36c-.91-4.37-1.92-9.21-3.32-14-.7-2.4-1.49-4.8-2.36-7.17-.44-1.21-.88-2.31-1.4-3.57l-.84-1.93-.91-1.88a74.13,74.13,0,0,0-8.81-13.16c-3.13-3.81-6.17-7.15-8.79-10.37a60,60,0,0,1-6.53-9.56,42.84,42.84,0,0,1-3.87-10.22c-.24-.89-.38-1.83-.59-2.74s-.32-1.86-.42-2.82a30.38,30.38,0,0,1-.34-5.15,19.71,19.71,0,0,1,2.13-8.58,22.92,22.92,0,0,1,5.94-7.13,41.26,41.26,0,0,1,9.25-5.58,89.89,89.89,0,0,1,23.4-6.36c4.17-.62,8.41-1.05,12.7-1.34,2.12-.15,4.34-.25,6.41-.33,1.87-.06,3.89,0,5.93.1a180.78,180.78,0,0,1,25.4,3.52,209.78,209.78,0,0,1,25,6.66,97.77,97.77,0,0,1,11.38,4.58,37.64,37.64,0,0,1,4.55,2.58l.51.37c-.05.34-.09.68-.13,1a42.45,42.45,0,0,1-1.15,5.35,72.25,72.25,0,0,1-4.19,11.11c-1.73,3.73-3.73,7.46-5.89,11.15-1.09,1.85-2.2,3.69-3.36,5.52-.56.92-1.16,1.83-1.75,2.74l-1.83,2.8c-5,7.66-9.91,15.31-14.86,22.68-2.48,3.68-5,7.28-7.54,10.71a89.47,89.47,0,0,1-8,9.33c-1.36,1.36-2.68,2.65-3.93,3.75a27.93,27.93,0,0,1-3.42,2.65,8.2,8.2,0,0,1-2.22,1,2.83,2.83,0,0,1-.4.08,1.49,1.49,0,0,1-.21,0c-.05,0-.29,0-.43,0a11,11,0,0,1-1.6-.34,4,4,0,0,1-1.77-.91,7.46,7.46,0,0,1-1.62-3,35.56,35.56,0,0,1-1.27-5.39c-.35-2-.65-4.26-1-6.56a89.69,89.69,0,0,0-3.1-14.6,48.65,48.65,0,0,0-3-7.42c-.62-1.19-1.32-2.4-2-3.51s-1.38-2.07-2.1-3.08A92,92,0,0,0,157,313.15c-3.32-3.37-6.77-6.45-9.74-9.48a32.8,32.8,0,0,1-3.8-4.47,8,8,0,0,1-1.58-4,6.7,6.7,0,0,1,1.24-4.13,13.68,13.68,0,0,1,4-3.53,41.65,41.65,0,0,1,11.63-4.58,89.79,89.79,0,0,1,13-2.17,111.72,111.72,0,0,1,26.6.58,67.07,67.07,0,0,1,12.9,3.12,33.45,33.45,0,0,1,5.93,2.78,15.81,15.81,0,0,1,4.73,4.2,8.52,8.52,0,0,1,1.58,5.86,13.94,13.94,0,0,1-2.35,6,43,43,0,0,1-9.4,9.64,43.36,43.36,0,0,0,10.2-9.08,15.08,15.08,0,0,0,3-6.37,10.21,10.21,0,0,0-1.4-7.12,17.89,17.89,0,0,0-5-5.13,35.81,35.81,0,0,0-6.17-3.42A69.67,69.67,0,0,0,199,277.67a115.82,115.82,0,0,0-27.63-2.46,90.91,90.91,0,0,0-14,1.43,48.42,48.42,0,0,0-13.91,4.58,21.36,21.36,0,0,0-6.41,5.13,16.73,16.73,0,0,0-2.33,3.88,14.19,14.19,0,0,0-.83,9.32,19.68,19.68,0,0,0,1.54,4.16,42,42,0,0,0,4.21,6.51c3,3.84,5.91,7.2,8.57,10.67a86,86,0,0,1,7.05,10.54q.76,1.35,1.44,2.73c.42.86.77,1.66,1.11,2.53a35.67,35.67,0,0,1,1.53,5.39,76.64,76.64,0,0,1,1.19,12.25c.08,2.22.14,4.53.31,7a52.17,52.17,0,0,0,1.06,8,31,31,0,0,0,1.4,4.57,24.24,24.24,0,0,0,2.57,4.81,22.08,22.08,0,0,0,4,4.33,23.27,23.27,0,0,0,4.82,3.07,28.77,28.77,0,0,0,4.85,1.79c.42.11.73.21,1.24.31s1,.22,1.47.29a23.22,23.22,0,0,0,3,.27,26,26,0,0,0,10.88-2.21,36.87,36.87,0,0,0,8-4.72,50.46,50.46,0,0,0,6-5.51,140.3,140.3,0,0,0,9.35-11.61c2.87-3.85,5.54-7.71,8.13-11.56,5.17-7.69,10.05-15.36,15-22.86l1.9-2.9c.64-1,1.29-2,1.92-3,1.26-2,2.49-4.05,3.71-6.11,2.42-4.14,4.72-8.42,6.81-12.92A93.17,93.17,0,0,0,262.33,291a63.92,63.92,0,0,0,1.7-7.95c.17-1.4.36-2.78.43-4.22l.06-1.08,0-.27s0-.2,0-.52a13,13,0,0,0-.07-1.54A15.21,15.21,0,0,0,263,270.3a19.37,19.37,0,0,0-1.82-3q4,2.21,8.12,4.23a5.52,5.52,0,0,0-.52,2.33,5.62,5.62,0,0,0,3.35,5.14,273.26,273.26,0,0,1-17,45.28,223,223,0,0,1-12.86,22.92l-3.56,5.42c-1.14,1.83-2.16,3.71-3.14,5.62a102.79,102.79,0,0,1-6.74,10.93A155.27,155.27,0,0,1,212.77,389c-1.46,1.52-3,3-4.48,4.43-.4.39-.68.62-1,.94s-.69.58-1,.87c-.7.58-1.42,1.14-2.18,1.68a47,47,0,0,1-9.68,5.43C187.6,405.12,180.53,406,174.24,404.43ZM254,369.1a54.22,54.22,0,0,0,3.54-6.25c1-2.16,1.86-4.42,2.73-6.65,1.7-4.47,3.2-9,4.6-13.53s2.54-9.13,3.61-13.72,1.95-9.2,2.65-13.83c.4-2.3.68-4.62,1-6.93l.27-2.42v.08a124.9,124.9,0,0,0,3,14.54,233.58,233.58,0,0,0,9.1,27,196.37,196.37,0,0,0,12.51,25.9c.8,1.35,1.68,2.73,2.59,4.1-10.15,1.1-18.74,3.67-25.44,7.6-6.8-4-15.47-6.58-25.55-7.66C250.47,374.58,252.22,371.82,254,369.1Zm20.28,36.4c2.28,4.63,1.85,10.22.18,15.75C272.66,415.72,272.1,410.12,274.3,405.5Zm6.82,37c10.69-18,12.66-33.17,5.83-45.17-.28-.5-.58-1-.89-1.47,6.35-2.57,14.75-4,24.51-4.1q2,2.43,4.15,4.8a108.69,108.69,0,0,0,22.73,19.64,61.49,61.49,0,0,0,14.9,6.81,45.44,45.44,0,0,0,11.08,1.84,175.74,175.74,0,0,1-87.05,25.63ZM418.39,367.1a50.45,50.45,0,0,1,4.38-10.37c.44-.76.92-1.48,1.39-2.21s1.16-1.65,1.76-2.45c1.2-1.61,2.46-3.18,3.79-4.73,1.62-1.9,3.37-3.75,5.22-5.65a176.21,176.21,0,0,1-19.21,34.52C416.66,373,417.48,369.92,418.39,367.1ZM446.54,263a59.74,59.74,0,0,0-12.31-11A68,68,0,0,0,420,244.68c-1.25-.48-2.53-.91-3.84-1.3-.65-.19-1.3-.39-2-.56s-1.36-.36-1.92-.48c-2.38-.55-4.76-1.06-7.14-1.5-4.62-.85-9.26-1.5-13.9-2-4.5-7.13-7.46-14-8.73-20,.63,0,1.27-.05,1.9-.11,13.74-1.24,25-11.65,33.59-30.95l3.51-7.92a175.56,175.56,0,0,1,26.86,85.32C447.73,264.42,447.15,263.67,446.54,263Zm-62.71-59.26c2.55-4.48,7.41-7.27,12.93-9C393.21,199.31,388.89,202.91,383.83,203.69Zm35.59-27-8.8.53c-20.87,1.25-34.55,8.16-40.65,20.56-.25.51-.49,1-.71,1.55A61.79,61.79,0,0,1,355.48,186a156.35,156.35,0,0,0,6.43-19.4,104.48,104.48,0,0,0,2.68-14.53,71.6,71.6,0,0,0,.07-15.57,48.81,48.81,0,0,0-4.38-15.69A178,178,0,0,1,419.42,176.73ZM291.79,98.13l-3,.73a108.2,108.2,0,0,1-11.87,2.48,44.73,44.73,0,0,1-5.31.39c-.86,0-1.71,0-2.56-.09l-.64,0-.73-.07c-.49,0-1-.09-1.47-.15a91.44,91.44,0,0,1-11.75-2.14c-1.26-.3-2.53-.64-3.84-1a177.18,177.18,0,0,1,41.16-.12ZM179.87,122.78a52.55,52.55,0,0,0-3.49,9.29,57.57,57.57,0,0,0-1.59,7.9,63.85,63.85,0,0,0-.56,7.9,68.2,68.2,0,0,0,1.64,15.62c.16.65.29,1.3.48,1.95s.35,1.37.52,1.9c.35,1.14.68,2.29,1,3.42q1.1,3.39,2.32,6.73c1.29,3.51,2.71,7,4.23,10.36-4.82,7.19-10,12.79-15.14,16.44-.27-.57-.55-1.14-.86-1.69-6.63-12.1-20.7-18.29-41.8-18.4l-7.27,0A178.1,178.1,0,0,1,179.87,122.78Zm2.38,303.4q2.1-.06,4.17-.3a58.93,58.93,0,0,0,16-4.16,68.08,68.08,0,0,0,14-7.85c1.09-.78,2.15-1.62,3.21-2.48.52-.45,1.05-.87,1.56-1.34s1.08-1,1.49-1.36c1.77-1.68,3.51-3.39,5.2-5.14q5.46-5.67,10.34-11.79c9.65,0,18,1.48,24.33,4.08-.34.54-.67,1.08-1,1.63-6.7,12.06-4.43,27.26,6.73,45.18l4.92,7.88-1.5,0A175.79,175.79,0,0,1,182.25,426.18Z"/><path class="cls-1" d="M272,61.37C155,61.37,59.9,156.52,59.9,273.46S155,485.55,272,485.55s212.09-95.14,212.09-212.09S388.93,61.37,272,61.37Zm0,414.18c-111.43,0-202.09-90.66-202.09-202.09S160.56,71.37,272,71.37,474.08,162,474.08,273.46,383.42,475.55,272,475.55Z"/><path class="cls-1" d="M466.9,80.22A273.5,273.5,0,0,0,0,273.89,273.5,273.5,0,1,0,466.9,80.22ZM273.5,539.78C127.1,539.78,8,420.51,8,273.89S127.1,8,273.5,8,539,127.28,539,273.89,419.9,539.78,273.5,539.78Z"/><path class="cls-1" d="M133.26,469.29c-6,9.24-2.54,16.68,5,21.59a22.71,22.71,0,0,0,4.63,2.44l16.27-24.84a46.92,46.92,0,0,0-5.9-4.62C146.78,459.64,139.86,459.22,133.26,469.29Z"/><path class="cls-1" d="M246.46,498.31a7.87,7.87,0,0,0-6.11,1.59,53.06,53.06,0,0,1,5.15,7.83q1.77,3.12,3,5.47c2.29-1.38,4.13-3.19,4.52-6A7.52,7.52,0,0,0,246.46,498.31Z"/><path class="cls-1" d="M179.5,492.64l-1.36,14,9.73-10.38c-1.32-.61-2.61-1.15-4-1.71Z"/><path class="cls-1" d="M37.4,254l.25-2.16c.74-6.47-2.35-8.56-6.62-9-4.76-.54-8.82,1.46-9.35,6.13a11.2,11.2,0,0,0,.08,3.29Z"/><path class="cls-1" d="M241.36,522.79c-.44,3.27,1,5.16,2.66,5.38s3.16-.8,3.6-4c.29-2.2-.06-4.3-1.82-8.51A9.78,9.78,0,0,0,241.36,522.79Z"/><path class="cls-1" d="M33.81,209.89l11.53,8.35c.43-1.38.81-2.73,1.2-4.13l1.3-4.62Z"/><path class="cls-1" d="M519.2,240c4.29-.73,6.17-4,5.6-7.37a7.13,7.13,0,0,0-.74-2.26l-13.13,2.21C511.74,237.44,513.94,240.92,519.2,240Z"/><path class="cls-1" d="M270,27.76c0-3.49-1.11-4.55-2.83-4.53-1.54,0-2.83,1.31-2.79,3.8,0,2.08.51,3.8,3,7.83A9.86,9.86,0,0,0,270,27.76Z"/><path class="cls-1" d="M494.54,238.86c.75,4.42,3.39,7,9.1,6,4.77-.8,7.6-3.94,6.41-11l-.19-1.11-15.53,2.61A19,19,0,0,0,494.54,238.86Z"/><path class="cls-1" d="M268.81,52.27a8.43,8.43,0,0,0,5-1.53A45.62,45.62,0,0,1,267,43.29c-1.15-1.48-2.26-2.86-3.23-4.21a9.09,9.09,0,0,0-2.26,6.42C261.57,49.12,264,52.34,268.81,52.27Z"/><path class="cls-1" d="M104.41,109.77c4.61-4.61,3.49-8.17.45-11.21-3.4-3.39-7.81-4.35-11.14-1a11.07,11.07,0,0,0-2,2.63l11.14,11.13Z"/><path class="cls-1" d="M71.2,150.8c9,6.19,16,4.46,19.7-1,3.88-5.62,2.93-12.93-5.68-18.87-9.43-6.5-16.83-4.07-20.29,1S61.88,144.38,71.2,150.8Z"/><path class="cls-1" d="M429.33,95.8c4.9,4.29,8.37,2.93,11.2-.31,3.16-3.61,3.82-8.08.28-11.18a11.38,11.38,0,0,0-2.75-1.8L427.69,94.37Z"/><path class="cls-1" d="M513,267.48c-10.91-.16-15.74,5.16-15.84,11.77-.09,6.83,4.77,12.38,15.22,12.53,11.45.16,16.25-6,16.33-12.09S524.35,267.63,513,267.48Z"/><path class="cls-1" d="M491.91,324.57c-1.49,6.67,2.13,13.1,12.34,15.37,11.17,2.5,17.12-2.53,18.45-8.5s-1.85-12.7-12.9-15.16C499.16,313.9,493.35,318.13,491.91,324.57Z"/><path class="cls-1" d="M339.22,505.27c-6.28,1.73-7.07,5.37-5.93,9.51,1.26,4.63,4.62,7.65,9.16,6.41a11.23,11.23,0,0,0,3-1.3l-4.16-15.19Z"/><path class="cls-1" d="M457.39,89.1A261.29,261.29,0,0,0,87.87,458.61,261.29,261.29,0,0,0,457.39,89.1Zm66.77,135.37.22,0c.12,1,.31,2.38.51,3.59.42,2.45.71,3.64,1,5.25,1,6.2-2.17,9.45-5.83,10.07-3.08.52-6.18-.71-8.09-5,.21,5.94-3.6,9.47-7.84,10.18-4.95.84-9.46-1.67-10.47-7.69-.42-2.5-.61-4.44-1-6.85-.27-1.65-.58-3.21-.79-4.18l.22,0c.55,1.61.92,2.46,4.49,1.86l24-4C524.08,227,524.18,226.21,524.16,224.47ZM499.41,155.8l.21-.1c.38.92.87,2.09,1.58,3.61s1.3,2.69,1.74,3.53l-.2.1c-1-1.4-1.41-1.84-4.69-.32L488.73,167c1.12,2.52,2.29,5,3.47,7.57s2.5,5.38,3.8,8.07l9.32-4.34c3.28-1.52,3.24-2.15,2.78-3.78l.2-.1c.38.92.88,2.09,1.58,3.61s1.3,2.69,1.74,3.53l-.2.1c-.95-1.41-1.41-1.85-4.69-.32l-22,10.25c-3.29,1.53-3.24,2.16-2.78,3.79l-.21.1c-.36-.89-.93-2.22-1.58-3.61s-1.28-2.65-1.74-3.54l.21-.09c1,1.4,1.4,1.84,4.69.31l11.45-5.32c-1.22-2.73-2.48-5.44-3.72-8.11s-2.35-5.05-3.55-7.53L476,172.87c-3.28,1.53-3.24,2.16-2.78,3.79l-.2.1c-.36-.88-.93-2.21-1.58-3.61s-1.28-2.65-1.74-3.53l.2-.1c1,1.41,1.41,1.84,4.69.32l22-10.25C499.92,158.06,499.87,157.43,499.41,155.8Zm-25.18-26.05c4-2.76,8.68-1.66,11.41,2.33,1.49,2.17,1.81,3.92,2.81,5.38a4.51,4.51,0,0,0,.47.61,26.56,26.56,0,0,0-2.54,1.57c-.56.39-1.5,1-2,1.45l-.15-.23a5.92,5.92,0,0,0,.71-8.16c-1.61-2.36-4.39-3.69-7.34-1.67-7.13,4.88.67,15.88-7.88,21.74-4.67,3.19-9.9,1.79-12.9-2.58-1.71-2.5-1.74-4.07-3-5.87a3.49,3.49,0,0,0-.42-.53,9.35,9.35,0,0,0,1-.63c.86-.59,1.51-1.31,2.45-1.95a7.26,7.26,0,0,1,2.66-1.16l.12.19a11,11,0,0,0-1,.56c-3.06,2.1-2.71,6.13-.69,9.08a5.82,5.82,0,0,0,8.52,1.63C474,146.4,466.09,135.32,474.23,129.75Zm-12.68-20.38c2.72-2.39,2.5-3,1.6-4.42l.17-.15c.62.78,1.42,1.76,2.53,3s2,2.21,2.67,2.9l-.17.15c-1.31-1.08-1.87-1.38-4.59,1l-18.24,16c-2.72,2.4-2.5,3-1.6,4.42l-.17.15c-.59-.74-1.52-1.86-2.54-3s-2-2.18-2.66-2.9l.17-.15c1.31,1.08,1.86,1.37,4.58-1ZM434.73,77.92l.15-.17c1.1,1.08,1.72,1.61,3.21,2.93,1,.89,2.86,2.37,3.61,3,5.18,4.52,5.54,9.89,2.08,13.84-2.5,2.86-6.82,4-11.65,1.36.35,1.81-4,14.45-1.77,18.41l-.18.2a7.4,7.4,0,0,1-.89-.71c-3.39-3.21-3.47-4-.85-15,.25-1.11,1-3.47.81-4.77l-2.18-1.91L420.18,103c-2.38,2.73-2.09,3.29-1,4.59l-.15.17c-.69-.65-1.75-1.64-2.91-2.65s-2.24-1.91-3-2.53l.15-.17c1.44.9,2,1.12,4.41-1.61l16-18.3C435.66,80.17,435.85,79.25,434.73,77.92Zm-40,11.39c1.54.7,2.15.84,4.16-2.17l13.5-20.22c2-3,1.64-3.52.4-4.68l.13-.19c.8.59,1.83,1.33,3.22,2.26s2.51,1.62,3.33,2.11l-.13.19c-1.54-.7-2.16-.84-4.17,2.17L401.65,89c-2,3-1.65,3.52-.4,4.68l-.13.19c-.76-.57-1.94-1.41-3.22-2.26s-2.48-1.6-3.33-2.11ZM384.14,59.68a6.41,6.41,0,1,1-6.41,6.41A6.41,6.41,0,0,1,384.14,59.68Zm-60.22-1.46c2.05,0,3.39-2.09,5.71-6.48L341.46,29.2l1.08.35,3.21,27.2,18-20.37,1.08.35L360.64,63.4c-.49,3.13-.88,5.81.42,6.8l-.2.64c-.9-.33-3-1-4.46-1.53s-3.5-1.08-4.46-1.34l.2-.65c1.08.06,1.65-.37,2-1.58a27.65,27.65,0,0,0,.7-4l2-14.85L341.25,64.81l-.73-.24-2.8-24.21-6.33,12.09A22.82,22.82,0,0,0,330,55.74c-.71,2.2-.5,3.79,1.08,4.78l-.21.64c-.93-.35-2.64-.95-4.24-1.46s-1.95-.58-2.87-.83Zm-61-20.35c-1.8-2.78-3-5.47-3.07-8.41-.08-5.25,3.73-7.62,7.44-7.68,3.4-.05,6.41,1.71,6.47,5.7.05,3.3-1.63,5.95-5.61,8.55a15.4,15.4,0,0,0,.88,1.34,62.3,62.3,0,0,0,7.47,9.17,14,14,0,0,0,.74-4.68c0-1.81-.65-4.33-2.61-4.89v-.14a4,4,0,0,0,.73.08,2.73,2.73,0,0,0,2.45-2.62l0-.09c1.56,1,2.59,3.54,2.62,5.44,0,2.58-1.18,5.41-2.91,7.92,2.89,2.67,6.05,4.84,8.95,5v.59a11.31,11.31,0,0,1-4.2.84,12.73,12.73,0,0,1-7.55-2.47A11.47,11.47,0,0,1,267,54.6c-5.66.09-10.41-2.73-10.49-8C256.51,43.77,258,40.76,262.93,37.87ZM196.5,33.1a95.09,95.09,0,0,1,9.79-2.25c.35,1.32.89,3,1.48,4.81.48,1.42,1,2.82,1.43,4l-.65.22c-3.52-5.07-7.43-6.77-11.59-5.37-5.67,1.91-8.9,8.92-5.79,18.14,3.22,9.57,9.66,13,15.19,11.08,4.46-1.5,6.7-7.07,6.71-11.71h.72c.36,1.64,1.37,5.22,2.24,7.79a30.24,30.24,0,0,1-9.21,5.3c-10.17,3.42-19.22-2.18-22-10.33C182.2,46.84,185,37,196.5,33.1ZM162.86,59.68a6.41,6.41,0,1,1-6.41,6.41A6.41,6.41,0,0,1,162.86,59.68ZM122.4,70.48c2.11-1.56,3.85-2,5.27-3a3.94,3.94,0,0,0,.59-.49,27.06,27.06,0,0,0,1.67,2.48c.4.54,1.08,1.46,1.52,2l-.22.16a5.93,5.93,0,0,0-8.19-.41c-2.29,1.7-3.53,4.52-1.4,7.4,5.15,7,15.85-1.26,22,7.07,3.37,4.55,2.16,9.84-2.1,13-2.44,1.8-4,1.89-5.75,3.18a4.47,4.47,0,0,0-.52.44,10.62,10.62,0,0,0-.66-1c-.62-.83-1.37-1.46-2-2.37a7.35,7.35,0,0,1-1.26-2.62l.18-.13a8.76,8.76,0,0,0,.6,1c2.21,3,6.23,2.48,9.1.36a5.83,5.83,0,0,0,1.32-8.58c-5.39-7.27-16.17,1-22-6.94C117.58,78.05,118.51,73.36,122.4,70.48ZM89.91,100c1-1,2.56-2.69,3.26-3.39,4.87-4.87,10.25-4.87,14-1.16,2.69,2.69,3.49,7.07.58,11.71,1.82-.22,14.15,5,18.25,3l.19.2a10.51,10.51,0,0,1-.77.83c-3.42,3.17-4.22,3.2-15.08-.16-1.08-.31-3.39-1.21-4.7-1.11l-2,2,7.4,7.4c2.56,2.56,3.13,2.3,4.51,1.31l.16.16c-.7.64-1.76,1.63-2.85,2.72s-2,2.11-2.72,2.85l-.16-.16c1-1.38,1.25-2-1.31-4.51L91.39,104.55c-2.15-2.14-3-2.39-4.45-1.37l-.16-.16C87.93,102,88.5,101.42,89.91,100Zm-25.6,31c5-7.3,15.07-9.18,23-3.68a16.38,16.38,0,0,1,4.4,23c-5.7,8.28-16,8.67-22.84,3.95C61.88,149.49,58.48,139.5,64.31,131Zm-27,47.64c1.37.48,1.87-.49,5.46-8.3,4.28-9.29,5-10.85,4.52-12.52l.12-.24a40.22,40.22,0,0,0,3.81,3.3l-.11.24a3.59,3.59,0,0,0-.58-.36c-1.28-.59-2.07.49-5.42,7.77l24.38,11.22c3.28,1.52,3.74,1.08,4.68-.33l.21.1c-.44.84-1.09,2.14-1.73,3.54s-1.19,2.69-1.57,3.61l-.2-.09c.45-1.64.49-2.27-2.8-3.78L43.67,171.61c-3,6.49-3.88,8.43-1.81,10.87l-.1.21c-1.49-1.09-2.17-2.1-4.58-3.8Zm-9.11,28,31.51-1c3-.11,3.31-.11,4-1.7l.21.06c-.3.9-.73,2.28-1.14,3.76s-.78,2.94-1,3.91l-.21-.06c.31-1.47-.16-2.12-1-2.35a9.42,9.42,0,0,0-2.41-.11l-8.92.27-1.4,5c-.44,1.56-.87,3.09-1.25,4.63l6.32,4.59a10,10,0,0,0,2.76,1.57c1,.28,1.89,0,2.48-1.46l.22.06c-.32.94-.77,2.41-1.23,4s-.53,2.06-.74,3l-.22-.06c.1-2.37-.22-3.21-4.67-6.48L28.05,207.14Zm-7.94,46.55c.15-1.35.33-3.7.44-4.68.78-6.84,5-10.18,10.21-9.59,3.78.43,7.13,3.37,7.74,8.81,1.29-1.31,14.18-4.89,16.15-9l.27,0A7.16,7.16,0,0,1,55,240c-.7,4.61-1.31,5.13-11.89,9.25-1.05.43-3.42,1.16-4.38,2.05l-.33,2.88,10.38,1.18c3.6.42,3.89-.14,4.35-1.78l.23,0c-.15.94-.36,2.37-.54,3.9s-.29,2.93-.36,3.92l-.22,0c-.08-1.7-.24-2.31-3.83-2.72L24.21,255.9c-3-.34-3.87,0-4.34,1.69l-.22,0C19.91,256.05,20,255.24,20.23,253.26Zm-1.44,44.67c1.44-.2,1.44-1.28,1.07-9.87-.44-10.22-.52-11.94-1.7-13.2v-.27A42.23,42.23,0,0,0,23,275.78l0,.27a3,3,0,0,0-.69-.06c-1.4.06-1.61,1.38-1.27,9.39l26.82-1.16c3.61-.16,3.81-.76,4-2.44h.23c0,1,0,2.4.08,3.94s.17,2.93.26,3.93h-.23c-.34-1.67-.59-2.24-4.21-2.09l-26.81,1.16c.31,7.15.4,9.27,3.35,10.5v.23c-1.82-.29-2.89-.87-5.81-1.29Zm4.13,25.95c-.5-2.58-.09-4.32-.43-6.05a3.93,3.93,0,0,0-.19-.75,28.56,28.56,0,0,0,3-.43c.67-.13,1.78-.34,2.44-.51l.05.26a5.94,5.94,0,0,0-3.92,7.21c.54,2.8,2.56,5.13,6.07,4.46,8.49-1.63,5.72-14.84,15.9-16.79,5.56-1.07,9.81,2.31,10.81,7.51.57,3,0,4.43.38,6.56a3.76,3.76,0,0,0,.17.66,8.56,8.56,0,0,0-1.16.18c-1,.2-1.92.6-3,.81a7.42,7.42,0,0,1-2.9,0l0-.23a9.55,9.55,0,0,0,1.13-.12c3.64-.7,4.93-4.54,4.26-8.06a5.83,5.83,0,0,0-7.17-4.89c-8.89,1.71-6.1,15-15.79,16.86C27.66,331.5,23.83,328.64,22.92,323.88Zm9.8,33.86-.21.07c-.26-1-.61-2.19-1.12-3.78s-1-2.83-1.29-3.72l.22-.07c.77,1.51,1.16,2,4.61.89l23.14-7.42c3.45-1.1,3.48-1.73,3.23-3.41l.22-.07c.24.92.64,2.31,1.11,3.78s.95,2.78,1.29,3.72l-.21.07c-.77-1.51-1.17-2-4.62-.9L36,354.32C32.51,355.43,32.47,356.06,32.72,357.74Zm19,45.51-.15-.28,14-35.65-3.6,1.8c-20.49,10.25-20.1,10.21-19.65,13.33l-.21.1c-.4-.91-.89-2-1.64-3.48s-1.29-2.49-1.76-3.32l.2-.1c2.25,2.26,2,2.5,22.21-7.62l9.31-4.66.1.2-14.08,35.8,3.64-1.83c20.25-10.13,20-10.05,19.54-13.26l.2-.1c.4.91.89,2,1.64,3.48s1.21,2.32,1.68,3.15l-.2.11c-2.27-2.11-2-2.27-22.29,7.86Zm17.42,24.56-.18.13c-.54-.84-1.24-1.9-2.21-3.26s-1.77-2.41-2.36-3.15l.18-.13c1.19,1.2,1.72,1.55,4.67-.55l19.78-14.12c3-2.1,2.79-2.71,2-4.23l.19-.13c.51.8,1.32,2,2.21,3.25s1.75,2.37,2.36,3.16l-.18.13c-1.2-1.21-1.72-1.55-4.67.55L71.22,423.57C68.28,425.67,68.43,426.28,69.18,427.81Zm31.58,36.88-.16-.16,11.41-27L85,448.87l-.16-.16,17.48-25c1.35-1.92,1.45-2.72.43-4.38l.16-.16c.64.7,1.63,1.76,2.71,2.85s2.49,2.44,3.22,3.12l-.16.16c-1.5-1.19-2.07-1.19-2.75-.52a20.72,20.72,0,0,0-1.41,1.91L91.92,444.44l25-10.65.16.16L106.6,459l16.07-11.25a18.14,18.14,0,0,0,2.5-2,2.43,2.43,0,0,0,.36-3.61l.16-.16c.67.74,1.92,2.05,3.1,3.24s1.46,1.41,2.17,2.05l-.16.16c-2.14-1.25-3.81-.68-7.37,1.77Zm64.64,6.18c-2.13-1-2.94-1.39-5,1.68l-13.32,20.33c-2,3-1,3.81.39,5.18l-.12.19c-.81-.58-2.52-1.76-3.55-2.43-2.38-1.56-4.07-2.62-6-3.88-10.38-6.8-13.4-16.14-7.62-25,4.83-7.38,13.51-10.63,23.54-4.06,2,1.29,5.34,3.66,7.61,5.15,1.4.92,3.28,2.1,4.14,2.61Zm36.3,16.19c-2.34-.39-3.22-.17-7,3.83l-20,21.09-.42-.17,2.92-31.39c.27-3,.31-3.31-1.18-4.19l.08-.2c.86.41,2.18,1,3.6,1.61s2.81,1.14,3.74,1.48l-.08.21c-1.42-.5-2.12-.11-2.45.69a9.12,9.12,0,0,0-.42,2.38l-.84,8.87,4.79,2c1.5.63,3,1.24,4.44,1.82l5.35-5.7a10.39,10.39,0,0,0,1.91-2.54c.4-1,.2-1.88-1.15-2.65l.09-.2c.9.42,2.3,1.06,3.84,1.71s2,.79,2.88,1.12Zm55.05,19.22c-.54,4-4.67,6.22-7.9,7.75,1.56,3.36,2.14,5.81,1.78,8.46-.67,4.93-4.24,7-7.29,6.64-2.43-.33-5-2-4.38-6.44.33-2.47,2.13-5.28,6.49-7.84l-.18-.35a78,78,0,0,0-7.13-12.11,14.64,14.64,0,0,0-2,5.72c-.33,2.47.12,3.81,1.73,4.75l0,.14c-1.52-.21-2.52.43-2.67,1.56l-.14,0a7.75,7.75,0,0,1-.87-5,16.74,16.74,0,0,1,3.39-7.81c-2.49-3.22-5.24-5.87-7.7-6.21v-.13a3.74,3.74,0,0,1,2.48-.44c2.65.36,5,1.58,7.45,4.39a10.94,10.94,0,0,1,8.66-2.58C253.39,497.38,257.44,501.21,256.75,506.28ZM56.35,273.85c0-119.25,97-216.28,216.28-216.28s216.28,97,216.28,216.28-97,216.29-216.28,216.29S56.35,393.11,56.35,273.85ZM304.16,530.49c-2.61.32-4.31-.21-6.06,0a3.91,3.91,0,0,0-.76.14,29.29,29.29,0,0,0-.22-3c-.08-.68-.22-1.8-.34-2.47l.27,0a5.92,5.92,0,0,0,6.91,4.41c2.83-.34,5.3-2.18,4.87-5.73-1-8.59-14.39-6.76-15.63-17.05-.67-5.61,3-9.61,8.26-10.24,3-.36,4.41.34,6.57.08a3.17,3.17,0,0,0,.67-.13,10,10,0,0,0,.09,1.18c.13,1,.47,1.95.6,3.07a7.29,7.29,0,0,1-.2,2.9l-.22,0c0-.41,0-.77-.05-1.13-.44-3.69-4.18-5.24-7.73-4.82a5.83,5.83,0,0,0-5.39,6.8c1.08,9,14.53,7.15,15.71,16.94C312.09,526.31,309,529.92,304.16,530.49ZM347,520.93c-1.31.36-3.55,1.07-4.51,1.34-6.64,1.81-11.31-.85-12.7-5.91-1-3.67.47-7.88,5.3-10.46-1.69-.71-9.81-11.35-14.36-11.65l-.07-.26a9.89,9.89,0,0,1,1.08-.35c4.55-1.05,5.26-.68,13,7.61.79.81,2.34,2.73,3.53,3.3l2.8-.77L338.3,493.7c-.95-3.49-1.58-3.55-3.27-3.37l-.06-.22c.93-.21,2.34-.55,3.82-1s2.83-.82,3.78-1.12l.06.22c-1.55.7-2.05,1.07-1.1,4.57L348,516.26c.81,2.92,1.46,3.59,3.19,3.4l.06.21C349.69,520.19,348.9,520.41,347,520.93Zm33.83-12.78c-6.33,2.81-9.65,4.27-11.47,5.18-.13-.29-.52-1.06-.81-1.72a19.81,19.81,0,0,1-1.26-3.5l.21-.09c1.63,3.68,3,3.23,9,.54a13.35,13.35,0,0,0,3.37-1.79l-5.46-12.33c-7.61,3.37-8,3.64-7.24,7l-.21.09c-.52-1.3-.87-2.19-1.62-3.89-1-2.19-1.28-2.79-1.95-4.18l.21-.09c2.2,3.28,2.65,3.18,10.26-.19l-5.95-13.45a15.54,15.54,0,0,0-3.63,1.31c-6.46,2.86-7.32,3.24-6.13,7.61l-.21.1c-1.5-3.5-1.36-3.76-2.17-5.58,3.9-1.58,4.73-1.94,8.58-3.65,3.15-1.39,7.43-3.34,8.28-3.76l.09.21c-1.84,1.21-1.93,2-.69,4.81L381.9,503c1.47,3.31,2.2,3.18,4.15,2.67l.09.2C385.29,506.22,383.79,506.83,380.81,508.15ZM415.38,489c-2.11,1.32-3,2-4.47,2.92-6.63,4.18-11.41,2.54-14.07-1.68a8.84,8.84,0,0,1,2.91-12.53,5.92,5.92,0,0,1,3.58-1l0,.4a6.1,6.1,0,0,0-2.67.94c-3.49,2.2-3.4,6-1.13,9.59,2.8,4.44,6.84,5.92,10.74,3.45a11,11,0,0,0,2.44-2.07l-14.48-23c-1.93-3.06-2.55-2.94-4.11-2.27l-.12-.19c.82-.47,2.07-1.21,3.37-2s2.47-1.61,3.29-2.18l.12.2c-1.27,1.12-1.65,1.63.28,4.69l13,20.56c1.93,3.07,2.7,2.85,4.3,2.16l.12.19C417.62,487.64,416.41,488.35,415.38,489Zm27.8-21.38c-5.25,4.52-8,6.88-9.48,8.27-.21-.24-.8-.86-1.27-1.41a21,21,0,0,1-2.22-3l.18-.15c2.62,3,3.77,2.24,8.82-2.09a13.75,13.75,0,0,0,2.71-2.68l-8.79-10.24c-6.32,5.43-6.6,5.79-4.9,8.81l-.18.15c-.88-1.1-1.46-1.85-2.67-3.25-1.56-1.82-2-2.31-3.08-3.45l.17-.15c3.06,2.52,3.46,2.29,9.78-3.14l-9.59-11.16a15.46,15.46,0,0,0-3.09,2.31c-5.36,4.6-6.08,5.22-3.68,9.06l-.17.14c-2.44-2.91-2.39-3.19-3.68-4.7,3.28-2.64,4-3.23,7.16-6,2.61-2.24,6.15-5.34,6.84-6l.15.17c-1.41,1.69-1.28,2.47.72,4.81l15.84,18.43c2.36,2.75,3,2.41,4.74,1.36l.15.17C446.92,464.48,445.66,465.51,443.18,467.63Zm25.91-26.45c-4.55,5.23-6.92,8-8.19,9.56-.24-.21-.91-.74-1.46-1.21a21.15,21.15,0,0,1-2.63-2.64l.15-.17c3,2.64,4.07,1.67,8.43-3.36a13.4,13.4,0,0,0,2.29-3.05l-10.19-8.84c-5.46,6.29-5.69,6.69-3.57,9.43l-.15.17c-1-.95-1.72-1.61-3.12-2.83-1.81-1.57-2.35-2-3.54-3l.14-.17c3.39,2,3.76,1.76,9.22-4.53l-11.11-9.65a15.19,15.19,0,0,0-2.73,2.73c-4.63,5.33-5.26,6-2.32,9.5l-.14.17c-2.85-2.52-2.83-2.81-4.34-4.12,2.87-3.09,3.46-3.77,6.22-6.95,2.25-2.6,5.31-6.18,5.9-6.93l.17.15c-1.15,1.87-.91,2.63,1.42,4.65l18.35,15.93c2.74,2.38,3.35,1.95,4.89.65l.17.15C472.33,437.52,471.22,438.72,469.09,441.18Zm24.56-34.41c-.82,1.3-1.55,2.55-2,3.38l-.19-.12c.66-1.56.78-2.18-2.28-4.11l-9.81-6.17,2.66,9.37c1.53,5.46,2.35,8.33,3.31,8.93.46.29.86.16,1.46-.63l.19.12c-.56.82-1.16,1.68-2.05,3.09s-1.6,2.63-2.07,3.46l-.19-.12c1-2.66-.19-6.91-3.92-21.56l-18.89,2.66c-2.8.37-4,.52-4.87,1.79l-.19-.12c.54-.78,1.45-2.13,2.27-3.43s1.55-2.56,2-3.42l.19.12c-.45.89-.43,1.28-.12,1.47.5.31,1.7,0,3.15-.16l16.23-2.08-10-6.27c-3.06-1.93-3.57-1.55-4.69-.28l-.19-.12c.54-.78,1.35-2,2.17-3.28s1.53-2.52,2-3.38l.19.12c-.66,1.56-.78,2.18,2.28,4.11l20.57,12.95c3.07,1.92,3.57,1.55,4.69.27l.19.12C495.26,404.3,494.54,405.35,493.65,406.77ZM511.7,370c-.61,1.41-1.13,2.77-1.46,3.66l-.21-.09c.41-1.65.43-2.28-2.91-3.69l-10.66-4.53,4.12,8.83c2.38,5.14,3.65,7.84,4.69,8.28.5.22.87,0,1.34-.85l.21.09c-.43.9-.88,1.84-1.53,3.38s-1.17,2.85-1.5,3.74l-.2-.09c.59-2.79-1.3-6.79-7.31-20.66l-18.23,5.63c-2.7.82-3.88,1.16-4.52,2.56l-.21-.09c.41-.86,1.09-2.34,1.69-3.76s1.13-2.76,1.48-3.7l.21.09c-.31.95-.23,1.33.11,1.47.54.23,1.68-.26,3.08-.65l15.69-4.65-10.83-4.6c-3.33-1.42-3.77-1-4.67.47l-.21-.09c.41-.85,1-2.17,1.62-3.58s1.11-2.73,1.46-3.66l.21.08c-.41,1.65-.43,2.28,2.9,3.7l22.37,9.5c3.34,1.42,3.77,1,4.68-.47l.21.09C512.89,367.27,512.35,368.42,511.7,370ZM523.59,332c-1.93,8.66-10.53,14.16-20,12.05a16.38,16.38,0,0,1-12.72-19.71c2.19-9.81,11.57-14,19.7-12.21C518.94,314,525.83,322,523.59,332Zm-11-36.06a16.4,16.4,0,0,1-16.47-16.72c.14-10,8.47-16.08,16.8-16,8.55.12,16.93,6.53,16.78,16.81C529.62,288.94,522.32,296.08,512.63,296Z"/></g></g></svg>